<svg width="1600" height="500" viewBox="0 0 1600 500" xmlns="http://www.w3.org/2000/svg">
<rect width="1600" height="500" fill="#0B1220"/>
<g transform="translate(70 -6) scale(1.0)">


    <defs>
      <linearGradient id="nutrelumaGradient" x1="80" y1="40" x2="420" y2="460" gradientUnits="userSpaceOnUse">
        <stop stop-color="#34D399"/>
        <stop offset="0.55" stop-color="#0F7A63"/>
        <stop offset="1" stop-color="#0B5B57"/>
      </linearGradient>
    </defs>

<circle cx="256" cy="256" r="224" stroke="url(#nutrelumaGradient)" stroke-width="26" opacity="0.35"/>
<path d="M256 85 C336 128 384 181 384 256 C309 256 256 208 256 85 Z" fill="url(#nutrelumaGradient)" opacity="0.95"/>
<path d="M256 85 C336 128 384 181 384 256 C309 256 256 208 256 85 Z" fill="url(#nutrelumaGradient)" opacity="0.70" transform="rotate(90 256 256)"/>
<path d="M256 85 C336 128 384 181 384 256 C309 256 256 208 256 85 Z" fill="url(#nutrelumaGradient)" opacity="0.95" transform="rotate(180 256 256)"/>
<path d="M256 85 C336 128 384 181 384 256 C309 256 256 208 256 85 Z" fill="url(#nutrelumaGradient)" opacity="0.70" transform="rotate(270 256 256)"/>
<circle cx="256" cy="256" r="45" fill="url(#nutrelumaGradient)"/>
<circle cx="239" cy="239" r="16" fill="#FFFFFF" opacity="0.85"/>

</g>
<text x="620" y="245" text-anchor="start" font-family="Inter, Arial, sans-serif" font-size="132" font-weight="700" letter-spacing="-4" fill="#FFFFFF">NutreLuma</text>
<text x="620" y="330" text-anchor="start" font-family="Inter, Arial, sans-serif" font-size="42" font-weight="500" letter-spacing="1.5" fill="#D1FAE5">SEE YOUR FOOD DIFFERENTLY</text>
</svg>